<?xml version="1.0" encoding="UTF-8"?>
<svg version="1.1" xmlns="http://www.w3.org/2000/svg" width="900" height="376">
<path d="M0 0 C4.53191753 1.36961432 7.95872833 0.46407033 12.375 -0.875 C30.06358674 -6.02666579 51.79202208 -6.78290471 68.765625 1.3203125 C75.98564303 5.69535654 80.82848605 11.83471451 83 20 C85.5018095 48.1308115 69.89292106 73.39035018 58.39477539 98.07763672 C52.32987365 111.10055597 46.35411677 124.16120978 40.45654297 137.26074219 C39.87467797 138.5488297 39.29280969 139.83691573 38.7109375 141.125 C38.20868652 142.24132812 37.70643555 143.35765625 37.18896484 144.5078125 C36 147 36 147 35 148 C33.17550017 148.11999938 31.34636759 148.17019424 29.51806641 148.19287109 C28.34660065 148.20893402 27.17513489 148.22499695 25.96817017 148.24154663 C20.60605244 148.28577211 15.24408361 148.32750375 9.88183594 148.35009766 C6.34496838 148.36675177 2.80903162 148.41152955 -0.72748375 148.4624691 C-4.09691913 148.50418214 -7.466268 148.51127451 -10.8359375 148.5234375 C-12.10786957 148.54610687 -13.37980164 148.56877625 -14.6902771 148.59213257 C-15.86804718 148.58928253 -17.04581726 148.5864325 -18.25927734 148.58349609 C-19.29772797 148.59158295 -20.33617859 148.5996698 -21.40609741 148.60800171 C-24 148 -24 148 -25.90769958 145.65461731 C-27 143 -27 143 -26.2175293 139.94262695 C-25.67523682 138.80269287 -25.13294434 137.66275879 -24.57421875 136.48828125 C-24.28069016 135.85566879 -23.98716156 135.22305634 -23.68473816 134.5712738 C-22.70590254 132.47481184 -21.69691924 130.3943866 -20.6875 128.3125 C-19.99228989 126.83786163 -19.29912625 125.36225691 -18.60791016 123.88574219 C-16.79065617 120.01627139 -14.94868514 116.15909391 -13.10113525 112.30401611 C-11.34790607 108.63555823 -9.61681739 104.9567536 -7.88671875 101.27734375 C-7.2152613 99.84968574 -6.54379325 98.42203273 -5.87231445 96.99438477 C-5.54236481 96.292742 -5.21241516 95.59109924 -4.87246704 94.86819458 C-3.87720451 92.75468143 -2.87879997 90.6426783 -1.87963867 88.53100586 C4.61983721 74.77924565 10.84405271 60.90847342 17 47 C15.26309473 48.73690527 14.50061941 51.07911028 13.47265625 53.2890625 C12.93705078 54.43818115 12.40144531 55.5872998 11.84960938 56.77124023 C11.25379432 58.05577491 10.65809502 59.34036329 10.0625 60.625 C9.43956041 61.96497501 8.81651097 63.30489896 8.19335938 64.64477539 C6.48690085 68.31640009 4.78404041 71.98968278 3.08233643 75.66351318 C1.98882705 78.02411953 0.89460036 80.38439241 -0.19970703 82.74462891 C-10.25659881 104.44188594 -20.19054922 126.1896254 -30 148 C-50.13 148 -70.26 148 -91 148 C-93.22737799 141.31786602 -93.22737799 141.31786602 -91.01766968 136.67402649 C-90.51585678 135.69649666 -90.51585678 135.69649666 -90.00390625 134.69921875 C-89.66453033 133.99842697 -89.32515442 133.29763519 -88.97549438 132.5756073 C-87.85516476 130.2706399 -86.70861849 127.97973698 -85.5625 125.6875 C-84.37383687 123.25429337 -83.19245396 120.81763308 -82.01112366 118.38085938 C-81.20265859 116.71470455 -80.39187299 115.04967384 -79.57884216 113.38574219 C-75.62507194 105.28511788 -71.88781295 97.09372896 -68.1875 88.875 C-66.97247481 86.18569061 -65.75578856 83.49713395 -64.5390625 80.80859375 C-64.24570007 80.15976227 -63.95233765 79.51093079 -63.65008545 78.84243774 C-58.83308234 68.19794242 -53.91328368 57.60030188 -49 47 C-50.96977276 48.96977276 -51.8945749 51.86772935 -53.0703125 54.375 C-53.38306625 55.03811188 -53.69582001 55.70122375 -54.01805115 56.38442993 C-55.05625982 58.58842613 -56.09082142 60.79411016 -57.125 63 C-57.66071121 64.13994415 -57.66071121 64.13994415 -58.20724487 65.30291748 C-63.72297824 77.04254836 -69.13095976 88.82815394 -74.47668457 100.64599609 C-79.37178965 111.46421097 -84.34200597 122.24523049 -89.375 133 C-89.70436554 133.70570129 -90.03373108 134.41140259 -90.37307739 135.13848877 C-91.29577435 137.11430578 -92.22151825 139.08866094 -93.1484375 141.0625 C-93.67614746 142.18785156 -94.20385742 143.31320312 -94.74755859 144.47265625 C-96 147 -96 147 -97 148 C-98.82449983 148.11999938 -100.65363241 148.17019424 -102.48193359 148.19287109 C-103.65339935 148.20893402 -104.82486511 148.22499695 -106.03182983 148.24154663 C-111.39394756 148.28577211 -116.75591639 148.32750375 -122.11816406 148.35009766 C-125.65503162 148.36675177 -129.19096838 148.41152955 -132.72748375 148.4624691 C-136.09691913 148.50418214 -139.466268 148.51127451 -142.8359375 148.5234375 C-144.10786957 148.54610687 -145.37980164 148.56877625 -146.6902771 148.59213257 C-147.86804718 148.58928253 -149.04581726 148.5864325 -150.25927734 148.58349609 C-151.29772797 148.59158295 -152.33617859 148.5996698 -153.40609741 148.60800171 C-156 148 -156 148 -157.92292786 145.68408203 C-159 143 -159 143 -157.97387695 139.47119141 C-157.33436567 138.08743001 -156.67052904 136.7147603 -155.98828125 135.3515625 C-155.63327042 134.59858383 -155.27825958 133.84560516 -154.91249084 133.06980896 C-153.73236478 130.57818506 -152.52253358 128.10221896 -151.3125 125.625 C-150.48358255 123.88836404 -149.6569537 122.15063402 -148.83251953 120.41186523 C-147.10775171 116.77835186 -145.37304264 113.14982216 -143.63232422 109.52392578 C-141.0575398 104.14272241 -138.55083232 98.73201323 -136.06640625 93.30859375 C-135.67014542 92.44403564 -135.27388458 91.57947754 -134.86561584 90.6887207 C-133.70142893 88.14694334 -132.5381427 85.60475535 -131.375 83.0625 C-127.27075563 74.09406269 -123.13259198 65.14912638 -118.7421875 56.31640625 C-118.42849213 55.68243423 -118.11479675 55.04846222 -117.79159546 54.39527893 C-105.30232878 29.51834321 -86.77140713 10.56164017 -60.51953125 0.69140625 C-57.36522541 -0.33741752 -54.22253961 -1.21300447 -51 -2 C-50.12085938 -2.22429687 -49.24171875 -2.44859375 -48.3359375 -2.6796875 C-32.19346272 -6.07565482 -15.6336425 -4.78228131 0 0 Z M-64 18 C-64 18.33 -64 18.66 -64 19 C-56.08 19 -48.16 19 -40 19 C-39.67 18.01 -39.34 17.02 -39 16 C-42.41659491 15.94183377 -45.83306205 15.90634805 -49.25 15.875 C-50.21808594 15.85824219 -51.18617188 15.84148437 -52.18359375 15.82421875 C-53.11816406 15.81777344 -54.05273438 15.81132812 -55.015625 15.8046875 C-56.30388184 15.78897705 -56.30388184 15.78897705 -57.61816406 15.77294922 C-60.17903596 16.01706677 -61.79511029 16.71009488 -64 18 Z " fill="#000000" transform="translate(610,115)"/>
<path d="M0 0 C6.30904981 6.17761128 7.87184865 12.19602468 8 20.9375 C7.90245131 30.5693726 6.38651938 43.52262175 -0.5 50.75 C-3.67688228 51.79491256 -6.75698978 51.70506166 -10.078125 51.65234375 C-11.0046991 51.66463516 -11.93127319 51.67692657 -12.88592529 51.68959045 C-15.84142002 51.7213497 -18.7944267 51.7050355 -21.75 51.6875 C-23.75523155 51.70060715 -25.76044525 51.71684606 -27.765625 51.73632812 C-32.67761509 51.77720867 -37.58792111 51.77498418 -42.5 51.75 C-41.68595703 51.93900879 -40.87191406 52.12801758 -40.03320312 52.32275391 C-38.96005859 52.57976074 -37.88691406 52.83676758 -36.78125 53.1015625 C-35.71970703 53.35244629 -34.65816406 53.60333008 -33.56445312 53.86181641 C-27.13514815 55.72524945 -22.17246201 59.10005845 -18.5 64.75 C-14.17595298 73.77409813 -16.00582285 84.47633567 -19.1875 93.6015625 C-27.68895795 113.9949408 -44.18710914 130.28629547 -64.5 138.75 C-87.30922303 147.13265224 -116.88470744 149.95308408 -139.75390625 140.16015625 C-147.95707778 135.94771682 -151.63120928 130.35637217 -154.5 121.75 C-155.57237333 107.41731802 -152.01573416 97.78146832 -145.5 84.75 C-133.29 84.42 -121.08 84.09 -108.5 83.75 C-112.13 82.43 -115.76 81.11 -119.5 79.75 C-124.25958253 76.47778701 -127.36365719 73.71775824 -129.0625 68.1328125 C-131.66679532 53.94870407 -127.25416309 40.59616046 -119.5 28.75 C-104.2682539 8.14899274 -84.82160894 -4.98429114 -59.30078125 -8.93359375 C-39.78220798 -11.65210134 -16.27243448 -12.91605757 0 0 Z M-76.5 12.75 C-76.5 13.08 -76.5 13.41 -76.5 13.75 C-68.25 13.75 -60 13.75 -51.5 13.75 C-51.17 12.76 -50.84 11.77 -50.5 10.75 C-53.89576062 10.69169213 -57.2913915 10.65630054 -60.6875 10.625 C-61.64720703 10.60824219 -62.60691406 10.59148437 -63.59570312 10.57421875 C-64.99272461 10.56455078 -64.99272461 10.56455078 -66.41796875 10.5546875 C-67.27156982 10.54421387 -68.1251709 10.53374023 -69.00463867 10.52294922 C-71.80726815 10.77795806 -73.94729419 11.59458578 -76.5 12.75 Z M-61.5 40.75 C-62.16 42.4 -62.82 44.05 -63.5 45.75 C-62.51 46.245 -62.51 46.245 -61.5 46.75 C-60.84 44.77 -60.18 42.79 -59.5 40.75 C-60.16 40.75 -60.82 40.75 -61.5 40.75 Z M-84.5 88.75 C-85.9606285 91.39738916 -86.5 92.64448334 -86.5 95.75 C-85.51 95.42 -84.52 95.09 -83.5 94.75 C-83.17 93.1 -82.84 91.45 -82.5 89.75 C-83.16 89.42 -83.82 89.09 -84.5 88.75 Z " fill="#000000" transform="translate(364.5,120.25)"/>
<path d="M0 0 C13.65572572 -0.06939109 27.31140976 -0.12275579 40.96727562 -0.15543652 C47.307674 -0.17111852 53.64795211 -0.19240305 59.98828125 -0.22631836 C66.10257785 -0.25882136 72.21675849 -0.27683389 78.3311348 -0.28463173 C80.66843111 -0.29019155 83.0057208 -0.3010479 85.34296799 -0.31719017 C88.60687929 -0.33884385 91.87030623 -0.34197197 95.13427734 -0.34057617 C96.10891434 -0.351362 97.08355133 -0.36214783 98.08772278 -0.3732605 C98.97395828 -0.36913651 99.86019379 -0.36501251 100.77328491 -0.36076355 C101.93197869 -0.36491162 101.93197869 -0.36491162 103.11408043 -0.36914349 C103.73643389 -0.24732614 104.35878735 -0.12550879 105 0 C107 3 107 3 106.82958984 5.23486328 C105.78011258 8.73291494 104.30450347 11.9598493 102.7265625 15.2421875 C102.23994644 16.27208298 102.23994644 16.27208298 101.74349976 17.32278442 C100.70919806 19.50936581 99.66742137 21.69227957 98.625 23.875 C97.5912166 26.05125898 96.5590195 28.22825873 95.52792358 30.40579224 C94.88758143 31.75684838 94.24546275 33.10706454 93.60122681 34.45626831 C93.30436981 35.0802652 93.00751282 35.70426208 92.70166016 36.34716797 C92.44486481 36.88501923 92.18806946 37.42287048 91.92349243 37.97702026 C90.56150865 40.96054833 89.29193757 43.985479 88 47 C74.47 47.33 60.94 47.66 47 48 C46.505 48.99 46.505 48.99 46 50 C47.04978027 50.01981934 48.09956055 50.03963867 49.18115234 50.06005859 C53.06893261 50.13602198 56.95633403 50.22475298 60.84375 50.31738281 C62.52759329 50.35571104 64.21151955 50.39055712 65.89550781 50.421875 C68.31345306 50.46744287 70.73082528 50.52544923 73.1484375 50.5859375 C73.9036972 50.59748871 74.65895691 50.60903992 75.43710327 50.62094116 C80.77225659 50.77225659 80.77225659 50.77225659 83 53 C82.72102065 58.64349226 80.8988 62.99960824 78.47265625 67.98046875 C78.12367783 68.71574295 77.7746994 69.45101715 77.41514587 70.20857239 C76.30640195 72.53920558 75.18468012 74.86331135 74.0625 77.1875 C73.31229229 78.75935605 72.56293497 80.33161828 71.81445312 81.90429688 C69.24727664 87.28856718 66.66770713 92.66458573 64 98 C50.47 98.33 36.94 98.66 23 99 C18.42249019 109.09399814 18.42249019 109.09399814 13.84765625 119.18920898 C9.32043631 129.16852278 4.69026759 139.09633158 0 149 C-8.29269378 149.09263761 -16.58517177 149.16373258 -24.87825489 149.20724869 C-28.72899957 149.22813325 -32.57939055 149.25646573 -36.42993164 149.30175781 C-40.14522978 149.34518613 -43.86018749 149.36913056 -47.57571983 149.37950897 C-48.99395801 149.38690591 -50.41217733 149.40135052 -51.83027077 149.42292023 C-53.81480397 149.45190802 -55.79967898 149.4536335 -57.78442383 149.45410156 C-59.47986076 149.46742523 -59.47986076 149.46742523 -61.20954895 149.48101807 C-64 149 -64 149 -65.92773438 147.14964294 C-67 145 -67 145 -66.37182617 142.15161133 C-64.972051 138.93579042 -63.55657152 135.74206712 -62.05078125 132.57421875 C-61.76172913 131.96275497 -61.472677 131.3512912 -61.17486572 130.72129822 C-60.55046901 129.40065881 -59.92468092 128.08067651 -59.29763794 126.7612915 C-57.59114896 123.1690003 -55.89662876 119.57108357 -54.203125 115.97265625 C-53.85274673 115.22832336 -53.50236847 114.48399048 -53.14137268 113.71710205 C-49.54158512 106.05286124 -46.04782364 98.34178314 -42.5625 90.625 C-37.15466429 78.65983264 -31.62121091 66.75981541 -26.00210571 54.89248657 C-22.20843285 46.87754546 -18.45487031 38.84744462 -14.796875 30.76953125 C-14.45483032 30.01421112 -14.11278564 29.25889099 -13.76037598 28.48068237 C-12.12424777 24.86299833 -10.4942128 21.24267896 -8.87109375 17.61914062 C-8.28386799 16.31509794 -7.6966291 15.01106117 -7.109375 13.70703125 C-6.60374023 12.5775708 -6.09810547 11.44811035 -5.57714844 10.28442383 C-3.87525416 6.74021582 -1.96479436 3.40452198 0 0 Z M9 17 C9 17.99 9 18.98 9 20 C16.26 20 23.52 20 31 20 C31.33 19.01 31.66 18.02 32 17 C24.41 17 16.82 17 9 17 Z " fill="#000000" transform="translate(400,114)"/>
</svg>
