<?xml version="1.0" encoding="UTF-8"?>
<svg version="1.1" xmlns="http://www.w3.org/2000/svg" width="591" height="591">
<path d="M0 0 C0.99660645 0.19335938 1.99321289 0.38671875 3.02001953 0.5859375 C62.36117832 12.31122211 120.26905242 45.13131715 157 94 C157.50950195 94.66016113 158.01900391 95.32032227 158.54394531 96.00048828 C167.38911603 107.46897032 175.23619212 119.18877764 182 132 C182.48710449 132.91958496 182.97420898 133.83916992 183.47607422 134.78662109 C195.6647126 158.14197861 204.23000058 183.08102799 209 209 C209.16081055 209.80066895 209.32162109 210.60133789 209.48730469 211.42626953 C214.9794441 239.50412453 214.73396692 272.98977935 209 301 C208.80664062 301.99660645 208.61328125 302.99321289 208.4140625 304.02001953 C200.49149749 344.11577869 183.72189556 383.910064 157.30761719 415.43212891 C156.03107455 416.96274071 154.78460648 418.5182773 153.5390625 420.07421875 C142.28739709 433.98648444 129.33515499 447.26749581 115 458 C113.59374014 459.08462264 112.18749115 460.16925935 110.78125 461.25390625 C100.01629497 469.46395169 88.97192932 476.67930494 77 483 C76.08041504 483.48710449 75.16083008 483.97420898 74.21337891 484.47607422 C50.85802139 496.6647126 25.91897201 505.23000058 0 510 C-0.80066895 510.16081055 -1.60133789 510.32162109 -2.42626953 510.48730469 C-30.50412453 515.9794441 -63.98977935 515.73396692 -92 510 C-93.49490967 509.70996094 -93.49490967 509.70996094 -95.02001953 509.4140625 C-154.36117832 497.68877789 -212.26905242 464.86868285 -249 416 C-249.76425293 415.0097583 -249.76425293 415.0097583 -250.54394531 413.99951172 C-259.38911603 402.53102968 -267.23619212 390.81122236 -274 378 C-274.48710449 377.08041504 -274.97420898 376.16083008 -275.47607422 375.21337891 C-287.6647126 351.85802139 -296.23000058 326.91897201 -301 301 C-301.24121582 299.79899658 -301.24121582 299.79899658 -301.48730469 298.57373047 C-306.9794441 270.49587547 -306.73396692 237.01022065 -301 209 C-300.70996094 207.50509033 -300.70996094 207.50509033 -300.4140625 205.97998047 C-288.68877789 146.63882168 -255.86868285 88.73094758 -207 52 C-206.33983887 51.49049805 -205.67967773 50.98099609 -204.99951172 50.45605469 C-193.53102968 41.61088397 -181.81122236 33.76380788 -169 27 C-168.08041504 26.51289551 -167.16083008 26.02579102 -166.21337891 25.52392578 C-142.85802139 13.3352874 -117.91897201 4.76999942 -92 0 C-91.19933105 -0.16081055 -90.39866211 -0.32162109 -89.57373047 -0.48730469 C-61.49587547 -5.9794441 -28.01022065 -5.73396692 0 0 Z M-144 33 C-144.7312207 33.31549805 -145.46244141 33.63099609 -146.21582031 33.95605469 C-172.91456349 45.56681952 -195.99151485 63.04815463 -217 83 C-217.82757813 83.78503906 -218.65515625 84.57007812 -219.5078125 85.37890625 C-225.15789344 90.88133699 -230.11935022 96.81232876 -235 103 C-235.78117187 103.96421875 -236.56234375 104.9284375 -237.3671875 105.921875 C-276.45494072 155.12498927 -294.14009876 219.15460135 -287.43359375 281.46875 C-280.86857272 337.08469912 -256.32269664 385.64775245 -218 426 C-217.21496094 426.82757813 -216.42992187 427.65515625 -215.62109375 428.5078125 C-210.11866301 434.15789344 -204.18767124 439.11935022 -198 444 C-197.03578125 444.78117187 -196.0715625 445.56234375 -195.078125 446.3671875 C-146.54535736 484.92240646 -82.53719282 503.31602637 -20.92724609 496.66845703 C35.35221733 490.04982351 84.1367903 465.80795951 125 427 C125.82757813 426.21496094 126.65515625 425.42992187 127.5078125 424.62109375 C133.15789344 419.11866301 138.11935022 413.18767124 143 407 C143.78117187 406.03578125 144.56234375 405.0715625 145.3671875 404.078125 C184.45494072 354.87501073 202.14009876 290.84539865 195.43359375 228.53125 C188.86857272 172.91530088 164.32269664 124.35224755 126 84 C125.21496094 83.17242187 124.42992187 82.34484375 123.62109375 81.4921875 C118.11866301 75.84210656 112.18767124 70.88064978 106 66 C104.55367188 64.82824219 104.55367188 64.82824219 103.078125 63.6328125 C33.52973865 8.38244467 -63.09446805 -2.49337092 -144 33 Z " fill="#000000" transform="translate(344,41)"/>
<path d="M0 0 C4.05065607 1.04115329 6.51870909 0.18869519 10.4921875 -1.02734375 C25.61568831 -5.57214964 41.74983347 -5.93087591 56.4921875 0.47265625 C61.87468468 3.4706493 66.93072722 8.96907809 69.0546875 14.78515625 C71.54275123 38.75669333 60.36025288 57.97375682 50.31040955 78.93244934 C45.99895399 87.95105983 41.88941895 97.06055821 37.77810669 106.17166138 C37.16280713 107.53512133 36.54715748 108.89842337 35.93112183 110.2615509 C35.12542047 112.04514083 34.32178369 113.829663 33.51831055 115.61425781 C32.09175305 118.70485477 30.59405313 121.74940003 29.0546875 124.78515625 C22.14970431 124.88653447 15.24491285 124.95661245 8.33935547 125.00488281 C5.98999866 125.02500439 3.64069196 125.05230476 1.29150391 125.08691406 C-2.08443565 125.13540665 -5.45971336 125.15811982 -8.8359375 125.17578125 C-9.88710754 125.19642639 -10.93827759 125.21707153 -12.02130127 125.23834229 C-19.33915712 125.24059666 -19.33915712 125.24059666 -22.63964844 122.76074219 C-23.07051758 122.10879883 -23.50138672 121.45685547 -23.9453125 120.78515625 C-24.9353125 122.76515625 -24.9353125 122.76515625 -25.9453125 124.78515625 C-33.01102482 124.88642551 -40.07655062 124.95656643 -47.14282227 125.00488281 C-49.5475158 125.02502072 -51.95216025 125.05233295 -54.35668945 125.08691406 C-57.80953064 125.13533502 -61.26172548 125.15810336 -64.71484375 125.17578125 C-66.33215141 125.20674896 -66.33215141 125.20674896 -67.98213196 125.23834229 C-69.48334846 125.23879547 -69.48334846 125.23879547 -71.01489258 125.23925781 C-71.89647537 125.24814026 -72.77805817 125.25702271 -73.68635559 125.26617432 C-75.9453125 124.78515625 -75.9453125 124.78515625 -77.75346375 122.7567749 C-78.14677383 122.10614075 -78.54008392 121.45550659 -78.9453125 120.78515625 C-79.3414978 121.4348085 -79.73768311 122.08446075 -80.14587402 122.75379944 C-81.9453125 124.78515625 -81.9453125 124.78515625 -84.14611816 125.28636169 C-85.00088745 125.28652786 -85.85565674 125.28669403 -86.73632812 125.28686523 C-87.7074353 125.29624619 -88.67854248 125.30562714 -89.67907715 125.31529236 C-90.72599731 125.30405838 -91.77291748 125.2928244 -92.8515625 125.28125 C-93.92780884 125.28270523 -95.00405518 125.28416046 -96.11291504 125.28565979 C-98.38926906 125.28399917 -100.66563412 125.27241978 -102.94189453 125.25170898 C-106.43179886 125.22276831 -109.92018375 125.23109446 -113.41015625 125.24414062 C-115.61979907 125.23790305 -117.82943708 125.22951197 -120.0390625 125.21875 C-121.08598267 125.22168564 -122.13290283 125.22462128 -123.21154785 125.22764587 C-124.18265503 125.2149617 -125.15376221 125.20227753 -126.15429688 125.18920898 C-127.00906616 125.183806 -127.86383545 125.17840302 -128.74450684 125.1728363 C-131.38841303 124.70710245 -132.27702073 123.8344538 -133.9453125 121.78515625 C-132.09036361 115.82817228 -129.89974405 110.22085295 -127.171875 104.61328125 C-126.81168274 103.86072556 -126.45149048 103.10816986 -126.0803833 102.33280945 C-124.91471121 99.89814447 -123.74245738 97.46671052 -122.5703125 95.03515625 C-120.93573433 91.62707844 -119.30616413 88.21663868 -117.6796875 84.8046875 C-117.27462982 83.95511978 -116.86957214 83.10555206 -116.45223999 82.23023987 C-113.94498619 76.95007244 -111.50749845 71.6448413 -109.1484375 66.296875 C-108.86024139 65.64451874 -108.57204529 64.99216248 -108.27511597 64.32003784 C-106.95480381 61.32313883 -105.64832427 58.32148437 -104.35791016 55.31152344 C-95.5544526 35.17463564 -82.35227463 16.73843444 -62.9453125 5.78515625 C-62.16800781 5.32367188 -61.39070313 4.8621875 -60.58984375 4.38671875 C-43.00807243 -5.33184831 -18.60958741 -7.67583778 0 0 Z M-53.9453125 15.78515625 C-47.3453125 15.78515625 -40.7453125 15.78515625 -33.9453125 15.78515625 C-33.9453125 15.12515625 -33.9453125 14.46515625 -33.9453125 13.78515625 C-36.71640557 13.73123228 -39.48645068 13.6915217 -42.2578125 13.66015625 C-43.04349609 13.64339844 -43.82917969 13.62664062 -44.63867188 13.609375 C-45.39599609 13.60292969 -46.15332031 13.59648437 -46.93359375 13.58984375 C-47.63009033 13.57937012 -48.32658691 13.56889648 -49.04418945 13.55810547 C-51.2764855 13.6794103 -51.2764855 13.6794103 -53.9453125 15.78515625 Z M13.0546875 38.78515625 C14.0546875 40.78515625 14.0546875 40.78515625 14.0546875 40.78515625 Z M-42.9453125 39.78515625 C-41.9453125 41.78515625 -41.9453125 41.78515625 -41.9453125 41.78515625 Z M12.0546875 40.78515625 C13.0546875 42.78515625 13.0546875 42.78515625 13.0546875 42.78515625 Z M-43.9453125 41.78515625 C-42.9453125 44.78515625 -42.9453125 44.78515625 -42.9453125 44.78515625 Z M11.0546875 42.78515625 C12.0546875 44.78515625 12.0546875 44.78515625 12.0546875 44.78515625 Z M-44.9453125 44.78515625 C-43.9453125 46.78515625 -43.9453125 46.78515625 -43.9453125 46.78515625 Z M10.0546875 44.78515625 C11.0546875 47.78515625 11.0546875 47.78515625 11.0546875 47.78515625 Z M-45.9453125 46.78515625 C-44.9453125 48.78515625 -44.9453125 48.78515625 -44.9453125 48.78515625 Z M-46.9453125 48.78515625 C-45.9453125 50.78515625 -45.9453125 50.78515625 -45.9453125 50.78515625 Z M-47.9453125 50.78515625 C-46.9453125 52.78515625 -46.9453125 52.78515625 -46.9453125 52.78515625 Z M7.0546875 51.78515625 C8.0546875 53.78515625 8.0546875 53.78515625 8.0546875 53.78515625 Z M-48.9453125 52.78515625 C-47.9453125 54.78515625 -47.9453125 54.78515625 -47.9453125 54.78515625 Z M6.0546875 53.78515625 C7.0546875 55.78515625 7.0546875 55.78515625 7.0546875 55.78515625 Z M-49.9453125 54.78515625 C-48.9453125 56.78515625 -48.9453125 56.78515625 -48.9453125 56.78515625 Z M5.0546875 55.78515625 C6.0546875 57.78515625 6.0546875 57.78515625 6.0546875 57.78515625 Z M-50.9453125 57.78515625 C-49.9453125 59.78515625 -49.9453125 59.78515625 -49.9453125 59.78515625 Z M4.0546875 57.78515625 C5.0546875 59.78515625 5.0546875 59.78515625 5.0546875 59.78515625 Z M-51.9453125 59.78515625 C-50.9453125 61.78515625 -50.9453125 61.78515625 -50.9453125 61.78515625 Z M3.0546875 59.78515625 C4.0546875 61.78515625 4.0546875 61.78515625 4.0546875 61.78515625 Z M-52.9453125 61.78515625 C-51.9453125 63.78515625 -51.9453125 63.78515625 -51.9453125 63.78515625 Z M2.0546875 61.78515625 C3.0546875 64.78515625 3.0546875 64.78515625 3.0546875 64.78515625 Z M-53.9453125 63.78515625 C-52.9453125 65.78515625 -52.9453125 65.78515625 -52.9453125 65.78515625 Z M1.0546875 64.78515625 C2.0546875 66.78515625 2.0546875 66.78515625 2.0546875 66.78515625 Z M-54.9453125 65.78515625 C-53.9453125 67.78515625 -53.9453125 67.78515625 -53.9453125 67.78515625 Z M0.0546875 66.78515625 C1.0546875 68.78515625 1.0546875 68.78515625 1.0546875 68.78515625 Z M-55.9453125 67.78515625 C-54.9453125 69.78515625 -54.9453125 69.78515625 -54.9453125 69.78515625 Z M-0.9453125 68.78515625 C0.0546875 70.78515625 0.0546875 70.78515625 0.0546875 70.78515625 Z M-56.9453125 70.78515625 C-55.9453125 72.78515625 -55.9453125 72.78515625 -55.9453125 72.78515625 Z M-1.9453125 70.78515625 C-0.9453125 72.78515625 -0.9453125 72.78515625 -0.9453125 72.78515625 Z M-57.9453125 72.78515625 C-56.9453125 74.78515625 -56.9453125 74.78515625 -56.9453125 74.78515625 Z M-2.9453125 72.78515625 C-1.9453125 75.78515625 -1.9453125 75.78515625 -1.9453125 75.78515625 Z M-58.9453125 74.78515625 C-57.9453125 76.78515625 -57.9453125 76.78515625 -57.9453125 76.78515625 Z M-3.9453125 75.78515625 C-2.9453125 77.78515625 -2.9453125 77.78515625 -2.9453125 77.78515625 Z M-59.9453125 76.78515625 C-58.9453125 78.78515625 -58.9453125 78.78515625 -58.9453125 78.78515625 Z M-4.9453125 77.78515625 C-3.9453125 79.78515625 -3.9453125 79.78515625 -3.9453125 79.78515625 Z M-60.9453125 78.78515625 C-59.9453125 80.78515625 -59.9453125 80.78515625 -59.9453125 80.78515625 Z M-5.9453125 79.78515625 C-4.9453125 81.78515625 -4.9453125 81.78515625 -4.9453125 81.78515625 Z M-61.9453125 80.78515625 C-60.9453125 83.78515625 -60.9453125 83.78515625 -60.9453125 83.78515625 Z M-6.9453125 81.78515625 C-5.9453125 83.78515625 -5.9453125 83.78515625 -5.9453125 83.78515625 Z M-62.9453125 83.78515625 C-61.9453125 85.78515625 -61.9453125 85.78515625 -61.9453125 85.78515625 Z M-7.9453125 83.78515625 C-6.9453125 85.78515625 -6.9453125 85.78515625 -6.9453125 85.78515625 Z M-8.9453125 85.78515625 C-7.9453125 88.78515625 -7.9453125 88.78515625 -7.9453125 88.78515625 Z M-64.9453125 87.78515625 C-63.9453125 89.78515625 -63.9453125 89.78515625 -63.9453125 89.78515625 Z M-9.9453125 88.78515625 C-8.9453125 90.78515625 -8.9453125 90.78515625 -8.9453125 90.78515625 Z M-65.9453125 89.78515625 C-64.9453125 91.78515625 -64.9453125 91.78515625 -64.9453125 91.78515625 Z M-10.9453125 90.78515625 C-9.9453125 92.78515625 -9.9453125 92.78515625 -9.9453125 92.78515625 Z M-66.9453125 91.78515625 C-65.9453125 93.78515625 -65.9453125 93.78515625 -65.9453125 93.78515625 Z M-11.9453125 92.78515625 C-10.9453125 94.78515625 -10.9453125 94.78515625 -10.9453125 94.78515625 Z M-67.9453125 93.78515625 C-66.9453125 95.78515625 -66.9453125 95.78515625 -66.9453125 95.78515625 Z M-12.9453125 94.78515625 C-11.9453125 96.78515625 -11.9453125 96.78515625 -11.9453125 96.78515625 Z M-68.9453125 95.78515625 C-67.9453125 97.78515625 -67.9453125 97.78515625 -67.9453125 97.78515625 Z M-13.9453125 96.78515625 C-12.9453125 98.78515625 -12.9453125 98.78515625 -12.9453125 98.78515625 Z M-69.9453125 98.78515625 C-68.9453125 100.78515625 -68.9453125 100.78515625 -68.9453125 100.78515625 Z M-14.9453125 98.78515625 C-13.9453125 100.78515625 -13.9453125 100.78515625 -13.9453125 100.78515625 Z M-70.9453125 100.78515625 C-69.9453125 102.78515625 -69.9453125 102.78515625 -69.9453125 102.78515625 Z M-15.9453125 101.78515625 C-14.9453125 103.78515625 -14.9453125 103.78515625 -14.9453125 103.78515625 Z M-71.9453125 102.78515625 C-70.9453125 104.78515625 -70.9453125 104.78515625 -70.9453125 104.78515625 Z M-16.9453125 103.78515625 C-15.9453125 105.78515625 -15.9453125 105.78515625 -15.9453125 105.78515625 Z M-72.9453125 104.78515625 C-71.9453125 106.78515625 -71.9453125 106.78515625 -71.9453125 106.78515625 Z M-17.9453125 105.78515625 C-16.9453125 107.78515625 -16.9453125 107.78515625 -16.9453125 107.78515625 Z M-73.9453125 106.78515625 C-72.9453125 108.78515625 -72.9453125 108.78515625 -72.9453125 108.78515625 Z M-18.9453125 107.78515625 C-17.9453125 109.78515625 -17.9453125 109.78515625 -17.9453125 109.78515625 Z M-74.9453125 108.78515625 C-73.9453125 111.78515625 -73.9453125 111.78515625 -73.9453125 111.78515625 Z M-19.9453125 109.78515625 C-18.9453125 111.78515625 -18.9453125 111.78515625 -18.9453125 111.78515625 Z M-75.9453125 111.78515625 C-74.9453125 113.78515625 -74.9453125 113.78515625 -74.9453125 113.78515625 Z M-20.9453125 112.78515625 C-19.9453125 114.78515625 -19.9453125 114.78515625 -19.9453125 114.78515625 Z M-76.9453125 113.78515625 C-75.9453125 115.78515625 -75.9453125 115.78515625 -75.9453125 115.78515625 Z M-21.9453125 114.78515625 C-20.9453125 116.78515625 -20.9453125 116.78515625 -20.9453125 116.78515625 Z M-77.9453125 115.78515625 C-76.9453125 117.78515625 -76.9453125 117.78515625 -76.9453125 117.78515625 Z M-22.9453125 116.78515625 C-21.9453125 118.78515625 -21.9453125 118.78515625 -21.9453125 118.78515625 Z M-78.9453125 117.78515625 C-77.9453125 119.78515625 -77.9453125 119.78515625 -77.9453125 119.78515625 Z " fill="#000000" transform="translate(429.9453125,234.21484375)"/>
<path d="M0 0 C1.06476563 -0.020625 2.12953125 -0.04125 3.2265625 -0.0625 C14.6446425 -0.11792757 25.82556534 1.82482284 34.875 9.25 C40.92823159 16.61430018 41.76469028 23.91792263 40.875 33.25 C39.35404942 39.85522524 36.9006917 46.19861659 33.875 52.25 C19.52 52.745 19.52 52.745 4.875 53.25 C8.175 54.9 11.475 56.55 14.875 58.25 C19.41119492 64.26740142 21.82189472 69.59482301 20.875 77.25 C17.75081736 90.92499372 11.43613736 100.23114861 1.875 110.25 C1.33359375 110.87777344 0.7921875 111.50554687 0.234375 112.15234375 C-11.06370358 124.7342949 -29.69464139 130.30415297 -46.06469727 131.45703125 C-49.06709983 131.55203929 -52.0586708 131.57887752 -55.0625 131.5625 C-56.11501953 131.55831055 -57.16753906 131.55412109 -58.25195312 131.54980469 C-65.54911968 131.44349135 -72.25985959 130.90636086 -79.125 128.25 C-79.86363281 127.98316406 -80.60226563 127.71632813 -81.36328125 127.44140625 C-86.92007743 125.0868316 -90.66421751 121.1352205 -94.125 116.25 C-97.52401758 106.05294726 -95.35680081 93.81016314 -91.125 84.25 C-90.465 82.93 -89.805 81.61 -89.125 80.25 C-74.275 79.755 -74.275 79.755 -59.125 79.25 C-62.425 77.6 -65.725 75.95 -69.125 74.25 C-73.48941283 69.88558717 -75.21546703 65.73573343 -75.4375 59.625 C-75.02523714 43.25573932 -66.2347124 31.39091946 -55.125 20.25 C-54.3928125 19.49460938 -53.660625 18.73921875 -52.90625 17.9609375 C-38.81190388 4.33990897 -18.95005193 0.08981067 0 0 Z M-29.125 20.25 C-22.525 20.25 -15.925 20.25 -9.125 20.25 C-9.125 19.59 -9.125 18.93 -9.125 18.25 C-12.08357409 18.19620774 -15.04117721 18.15642907 -18 18.125 C-18.84175781 18.10824219 -19.68351562 18.09148437 -20.55078125 18.07421875 C-21.75927734 18.06455078 -21.75927734 18.06455078 -22.9921875 18.0546875 C-23.73581543 18.04421387 -24.47944336 18.03374023 -25.24560547 18.02294922 C-27.36990235 18.0834403 -27.36990235 18.0834403 -29.125 20.25 Z M-18.125 43.25 C-18.455 44.9 -18.785 46.55 -19.125 48.25 C-18.135 46.93 -17.145 45.61 -16.125 44.25 C-16.785 43.92 -17.445 43.59 -18.125 43.25 Z M-37.125 83.25 C-37.455 84.9 -37.785 86.55 -38.125 88.25 C-37.465 87.92 -36.805 87.59 -36.125 87.25 C-36.455 85.93 -36.785 84.61 -37.125 83.25 Z " fill="#000000" transform="translate(190.125,229.75)"/>
<path d="M0 0 C11.42192376 -0.06943818 22.84379751 -0.12277981 34.26588917 -0.15543652 C39.56934362 -0.17110823 44.87265391 -0.19237401 50.17602539 -0.22631836 C55.29181528 -0.25885805 60.4074663 -0.27684167 65.52335167 -0.28463173 C67.47744623 -0.29018494 69.431533 -0.30102868 71.38556862 -0.31719017 C74.11764721 -0.33889283 76.84914824 -0.34196994 79.58129883 -0.34057617 C80.39337799 -0.351362 81.20545715 -0.36214783 82.04214478 -0.3732605 C87.54344507 -0.34279011 87.54344507 -0.34279011 90.02616882 1.52128601 C90.50821526 2.25324944 90.50821526 2.25324944 91 3 C89.49457199 7.89073058 87.51228752 12.39618936 85.3125 17 C84.99861328 17.66644531 84.68472656 18.33289063 84.36132812 19.01953125 C81.0185901 26.07133475 77.49186025 33.0162795 74 40 C62.78 40.33 51.56 40.66 40 41 C39.505 41.99 39.505 41.99 39 43 C48.9 43 58.8 43 69 43 C71 48 71 48 69.8659668 51.45751953 C69.24514602 52.77463262 68.60496858 54.08273654 67.94921875 55.3828125 C67.61581985 56.07889618 67.28242096 56.77497986 66.93891907 57.49215698 C65.87162067 59.7115487 64.78036788 61.91810419 63.6875 64.125 C62.61099728 66.34145636 61.539411 68.56024104 60.46821594 70.77926636 C59.80029242 72.15808071 59.12822382 73.53489651 58.45158386 74.90945435 C57.13707821 77.5852558 55.94423154 80.16730538 55 83 C37.675 83.495 37.675 83.495 20 84 C18.35 87.609375 16.7 91.21875 15 94.9375 C11.48280655 102.61557 7.95705711 110.28943774 4.375 117.9375 C4.045 118.64575928 3.715 119.35401855 3.375 120.08374023 C1.11878075 124.88121925 1.11878075 124.88121925 0 126 C-1.64062483 126.11954272 -3.28633525 126.17013251 -4.93115234 126.19287109 C-6.50816422 126.21696548 -6.50816422 126.21696548 -8.11703491 126.24154663 C-12.92958079 126.2857901 -17.74198608 126.32705548 -22.5546875 126.35009766 C-25.09807472 126.36667648 -27.641415 126.39399136 -30.18457031 126.43212891 C-33.83944016 126.48670045 -37.49321594 126.50874172 -41.1484375 126.5234375 C-42.28912689 126.54610687 -43.42981628 126.56877625 -44.60507202 126.59213257 C-45.66271759 126.58928253 -46.72036316 126.5864325 -47.81005859 126.58349609 C-48.74191986 126.59158295 -49.67378113 126.5996698 -50.63388062 126.60800171 C-53 126 -53 126 -54.89324951 123.693573 C-56 121 -56 121 -54.89794922 117.31933594 C-54.22256909 115.86375717 -53.52283187 114.41933721 -52.8046875 112.984375 C-52.43044144 112.19306183 -52.05619537 111.40174866 -51.67060852 110.5864563 C-50.42514945 107.96435866 -49.14998752 105.35784983 -47.875 102.75 C-46.99679245 100.91272461 -46.12093107 99.07432608 -45.24731445 97.23486328 C-43.42453779 93.40177816 -41.59165234 89.57377883 -39.75146484 85.74902344 C-35.88038218 77.68473511 -32.1262608 69.56669349 -28.37557983 61.44589233 C-27.19005461 58.88052793 -26.00131933 56.31667332 -24.81176758 53.75317383 C-19.24651019 41.75159353 -13.7644425 29.71395671 -8.36206055 17.63818359 C-7.84168213 16.47754395 -7.32130371 15.3169043 -6.78515625 14.12109375 C-6.34051025 13.1252124 -5.89586426 12.12933105 -5.43774414 11.10327148 C-4.29961717 8.64670298 -3.1241989 6.22511288 -1.91014099 3.80604553 C-1.55186439 3.09154771 -1.19358778 2.37704988 -0.82445431 1.64090061 C-0.55238439 1.09940341 -0.28031446 0.55790621 0 0 Z M9 15 C8.67 15.66 8.34 16.32 8 17 C14.27 17 20.54 17 27 17 C27 16.34 27 15.68 27 15 C21.06 15 15.12 15 9 15 Z " fill="#000000" transform="translate(253,233)"/>
</svg>
